<svg xmlns="http://www.w3.org/2000/svg" viewBox="0 0 404 131" role="img" aria-label="Wieck Marketing Strategy"><title>Wieck Marketing Strategy</title><g transform="translate(-18 -17) scale(0.16666667)"><g transform="translate(0.000000,996.000000) scale(0.100000,-0.100000)" fill="#111111"><path d="M17834 3730 c-183 -16 -352 -178 -376 -360 -39 -295 24 -413 387 -730 312 -271 385 -370 385 -520 0 -112 -35 -176 -129 -239 -33 -21 -170 -20 -205 2 -96 64 -135 135 -178 332 -17 82 -29 89 -118 69 -94 -21 -128 -38 -141 -71 -14 -38 -1 -141 26 -193 12 -25 25 -58 29 -75 27 -112 179 -246 323 -287 314 -88 610 83 648 373 22 170 -23 406 -85 444 -6 3 -19 24 -31 46 -21 42 -151 178 -253 264 -278 236 -336 294 -369 365 -86 187 13 370 199 370 123 0 198 -72 244 -231 40 -138 50 -148 132 -125 153 44 156 49 117 207 -12 46 -34 104 -50 128 -16 25 -29 49 -29 56 0 19 -93 101 -152 134 -50 28 -243 61 -288 49 -3 0 -41 -4 -86 -8z"/> <path d="M1217 3709 l-22 -17 27 -139 c15 -76 32 -183 38 -239 5 -55 18 -129 29 -165 11 -35 25 -109 31 -164 6 -55 15 -122 21 -150 6 -27 19 -111 29 -185 11 -74 28 -166 39 -205 10 -38 24 -129 30 -202 6 -73 18 -154 27 -180 8 -26 21 -100 29 -163 27 -216 42 -240 154 -240 106 0 126 28 151 213 6 45 22 123 35 172 12 50 26 131 30 180 4 50 16 113 26 140 11 28 26 93 34 146 8 53 21 125 30 160 8 36 21 110 29 166 13 97 57 223 78 223 14 0 28 -47 34 -123 3 -40 15 -106 25 -147 11 -40 27 -127 35 -192 8 -65 23 -142 34 -170 11 -29 24 -96 30 -148 6 -52 17 -120 25 -150 7 -30 19 -91 25 -135 6 -44 22 -118 35 -165 13 -47 27 -100 30 -118 9 -44 35 -55 118 -50 100 6 110 19 125 175 7 67 21 150 32 184 11 35 27 129 35 209 8 80 21 172 29 205 9 33 22 112 30 175 8 63 22 138 30 165 9 28 21 111 27 185 6 74 18 157 25 185 15 54 36 164 54 285 6 41 17 112 24 157 22 128 1 151 -132 140 -84 -6 -90 -14 -102 -127 -5 -52 -16 -115 -24 -140 -7 -25 -19 -85 -25 -135 -51 -395 -65 -494 -83 -590 -11 -60 -24 -130 -29 -155 -4 -25 -8 -74 -8 -110 -1 -70 -16 -140 -31 -140 -17 0 -74 253 -86 380 -4 41 -17 107 -30 146 -13 39 -28 111 -34 160 -7 49 -20 127 -30 174 -10 47 -21 114 -25 149 -4 35 -18 94 -30 130 -13 36 -26 99 -30 140 -10 99 -22 111 -119 111 -101 0 -113 -11 -126 -115 -6 -44 -19 -106 -30 -137 -11 -31 -26 -111 -35 -178 -8 -66 -21 -144 -30 -173 -8 -28 -22 -99 -30 -157 -9 -58 -23 -127 -31 -155 -8 -27 -21 -104 -29 -170 -14 -119 -59 -263 -81 -258 -5 1 -13 28 -17 60 -17 127 -37 241 -51 293 -8 30 -20 118 -25 195 -6 77 -17 165 -26 195 -8 30 -21 112 -30 182 -9 70 -24 169 -35 220 -11 51 -20 107 -20 124 0 61 -25 77 -124 79 -71 1 -92 -2 -109 -16z"/> <path d="M5860 3717 l-25 -13 -3 -989 c-1 -545 0 -1000 3 -1012 8 -32 71 -47 170 -39 112 9 105 -10 108 297 l2 264 39 70 c44 77 52 86 73 78 16 -6 57 -92 74 -156 6 -22 17 -50 24 -61 7 -12 21 -50 30 -85 9 -35 22 -73 30 -85 13 -19 56 -137 91 -248 20 -66 47 -78 168 -78 128 0 148 19 106 100 -11 22 -20 46 -20 54 0 7 -13 39 -29 69 -16 30 -34 78 -40 105 -5 27 -19 65 -30 83 -10 19 -22 50 -26 69 -4 19 -18 55 -30 81 -13 25 -27 63 -30 85 -4 21 -20 62 -35 89 -60 108 -62 168 -9 248 17 27 41 66 53 88 29 55 110 190 163 272 77 119 72 127 -93 127 -129 0 -127 1 -179 -89 -16 -29 -40 -67 -52 -84 -12 -18 -31 -48 -43 -67 -11 -19 -38 -62 -60 -95 -21 -33 -45 -74 -53 -91 -23 -49 -88 -134 -102 -134 -24 0 -25 32 -25 579 l1 546 -22 18 c-26 21 -189 24 -229 4z"/> <path d="M7592 3720 c-33 -14 -31 28 -43 -835 -6 -440 -13 -884 -16 -987 l-5 -186 25 -26 c34 -34 150 -38 188 -7 28 22 33 124 43 871 6 369 10 430 34 438 17 5 29 -32 41 -137 7 -51 19 -110 27 -130 14 -33 36 -129 85 -371 10 -52 27 -115 38 -140 10 -25 24 -85 31 -134 6 -49 20 -114 30 -145 10 -31 24 -87 30 -125 18 -111 47 -146 121 -146 79 0 100 30 123 173 9 51 22 112 31 136 8 23 20 73 26 109 7 37 20 92 31 122 10 30 23 91 29 135 5 44 20 109 33 145 24 64 39 130 76 342 26 149 49 186 69 111 5 -21 13 -305 18 -631 l8 -594 28 -24 c37 -32 151 -35 188 -5 25 20 27 83 13 481 -3 91 -9 469 -14 840 -5 371 -12 683 -15 692 -10 26 -74 39 -172 35 -99 -4 -116 -16 -128 -90 -4 -23 -16 -75 -26 -116 -11 -41 -19 -87 -19 -103 0 -15 -13 -70 -29 -121 -16 -50 -34 -131 -40 -179 -6 -47 -18 -105 -26 -129 -8 -23 -20 -71 -25 -108 -6 -36 -21 -100 -34 -141 -13 -41 -27 -111 -31 -155 -4 -45 -17 -104 -30 -135 -12 -30 -30 -99 -39 -153 -33 -198 -82 -187 -104 24 -6 53 -18 113 -27 134 -8 22 -22 80 -30 131 -9 51 -22 108 -30 128 -8 19 -22 85 -30 146 -7 60 -23 130 -34 155 -11 25 -25 82 -31 128 -7 45 -20 116 -30 157 -10 41 -21 95 -25 120 -3 25 -17 77 -30 115 -13 39 -26 91 -30 117 -3 25 -12 51 -18 57 -17 13 -226 22 -255 11z"/> <path d="M11155 3723 c-46 -11 -45 19 -45 -1029 0 -1108 -6 -1018 73 -1029 61 -8 186 0 200 14 8 8 13 94 17 289 l5 277 38 60 c61 97 89 90 122 -28 10 -34 28 -80 40 -102 13 -22 28 -65 34 -95 7 -30 18 -64 26 -76 15 -23 56 -134 86 -234 29 -98 39 -104 168 -108 108 -4 110 -3 126 22 16 24 16 28 -6 73 -27 55 -62 149 -89 241 -10 34 -28 75 -39 90 -10 15 -26 52 -35 82 -29 102 -66 201 -85 228 -19 28 -41 113 -41 161 0 17 15 52 35 82 20 29 52 82 72 118 21 36 50 84 65 105 15 21 28 42 28 46 0 8 59 104 93 153 15 20 16 30 7 46 -17 33 -251 32 -275 -1 -26 -37 -58 -88 -104 -168 -25 -41 -52 -84 -61 -95 -13 -16 -129 -209 -159 -265 -5 -8 -17 -15 -27 -15 -18 0 -19 18 -22 564 -2 508 -4 566 -19 583 -16 18 -168 25 -228 11z"/> <path d="M3163 3628 c-47 -23 -58 -224 -14 -260 32 -25 204 -26 240 -2 35 25 29 225 -8 255 -27 22 -177 27 -218 7z"/> <path d="M14104 3603 c-20 -46 -16 -211 5 -236 11 -14 33 -17 115 -17 144 0 146 2 146 136 0 145 -9 154 -150 154 l-101 0 -15 -37z"/> <path d="M13386 3539 l-26 -20 0 -179 c0 -202 -3 -210 -82 -210 -59 0 -81 -29 -76 -98 6 -66 30 -92 87 -92 74 0 70 35 73 -550 4 -577 0 -543 72 -638 69 -90 138 -116 294 -110 125 4 134 10 140 103 6 97 -8 115 -96 115 -133 0 -132 -5 -132 580 0 553 -12 500 114 500 99 0 116 14 116 99 0 82 -11 91 -108 91 -125 0 -122 -4 -122 209 0 223 1 221 -137 221 -76 0 -94 -3 -117 -21z"/> <path d="M18790 3540 c-18 -18 -20 -33 -20 -197 0 -206 0 -204 -76 -214 -70 -9 -84 -25 -84 -90 0 -66 22 -90 88 -97 28 -2 56 -10 61 -16 6 -7 11 -216 13 -542 l3 -529 38 -61 c76 -121 141 -154 309 -154 134 0 163 23 156 127 -5 82 -18 93 -105 93 -123 0 -123 -1 -123 582 0 544 -10 498 111 498 102 0 119 14 119 98 0 81 -14 92 -113 92 -117 0 -117 -1 -117 214 l0 175 -26 20 c-39 31 -204 31 -234 1z"/> <path d="M21476 3539 l-26 -20 0 -175 c0 -203 -4 -214 -85 -214 -62 0 -80 -27 -70 -110 8 -68 20 -80 83 -80 75 0 72 24 72 -521 1 -597 1 -601 104 -704 58 -58 137 -79 271 -73 123 5 135 16 135 119 0 84 -15 99 -101 99 -128 0 -129 3 -129 581 0 545 -11 499 116 499 107 0 119 9 119 92 0 91 -8 98 -109 98 -125 0 -121 -7 -123 211 -3 228 2 219 -133 219 -83 0 -101 -3 -124 -21z"/> <path d="M16084 3141 c-130 -24 -201 -80 -268 -211 -60 -119 -76 -460 -24 -553 7 -13 25 -46 40 -73 14 -27 38 -60 52 -73 33 -31 33 -51 0 -82 -24 -22 -40 -43 -96 -128 -12 -17 -18 -46 -18 -86 0 -59 0 -59 57 -113 l56 -53 -75 -72 c-96 -91 -121 -178 -88 -299 31 -111 230 -197 456 -198 93 0 186 17 317 56 41 13 133 102 160 155 71 141 12 421 -96 455 -12 4 -36 18 -53 31 -33 25 -47 27 -323 53 -159 15 -209 46 -177 108 28 53 39 57 160 54 176 -5 270 39 351 164 61 95 85 283 59 471 -19 138 -12 166 44 179 157 35 185 69 137 164 -37 73 -79 68 -190 -20 -78 -62 -76 -62 -145 4 -53 50 -60 54 -130 65 -41 7 -84 13 -95 15 -11 2 -61 -4 -111 -13z m210 -220 c61 -57 77 -426 24 -538 -21 -45 -115 -87 -164 -74 -110 30 -138 90 -139 301 0 293 27 344 183 336 58 -2 77 -7 96 -25z m-19 -1201 c95 -13 155 -46 185 -102 l25 -48 -24 -44 c-43 -82 -40 -81 -250 -84 -210 -3 -225 1 -255 62 -30 60 -10 130 53 189 l49 46 78 -5 c44 -3 106 -9 139 -14z"/> <path d="M23589 3150 c-148 -24 -154 -27 -232 -104 -112 -111 -144 -221 -134 -471 6 -161 31 -238 109 -327 l51 -59 -54 -57 c-123 -128 -135 -272 -28 -327 42 -22 37 -35 -39 -111 -98 -98 -104 -109 -105 -201 0 -43 4 -87 10 -97 24 -43 127 -135 157 -141 17 -4 60 -16 96 -28 95 -32 335 -32 430 0 36 12 79 24 97 28 34 7 142 105 167 152 63 123 41 314 -47 404 -96 99 -121 108 -340 131 -232 23 -261 33 -265 94 -5 68 22 82 150 76 221 -9 347 80 413 293 37 119 40 295 6 390 -32 91 -14 121 89 141 46 9 80 26 109 58 43 46 54 36 67 -59 4 -27 17 -85 30 -128 13 -42 26 -105 30 -140 4 -34 17 -87 30 -118 13 -31 28 -87 34 -125 6 -38 19 -103 30 -144 10 -41 21 -95 25 -120 4 -25 18 -70 30 -100 13 -30 28 -93 33 -140 6 -47 20 -110 31 -141 64 -186 31 -256 -126 -269 -101 -9 -116 -24 -108 -108 10 -116 18 -120 187 -92 199 34 304 127 328 291 6 44 18 98 25 120 8 23 20 71 26 107 6 37 19 90 29 118 11 29 25 99 33 155 8 57 22 120 31 139 16 36 55 207 82 360 8 47 24 107 35 135 11 27 27 97 35 155 9 58 22 117 30 132 43 84 17 108 -121 108 -144 0 -142 1 -160 -130 -9 -58 -22 -129 -30 -157 -9 -29 -20 -99 -25 -155 -11 -119 -15 -141 -40 -223 -10 -33 -23 -103 -30 -155 -28 -214 -78 -177 -105 77 -7 76 -23 168 -34 205 -10 37 -22 98 -26 135 -4 37 -18 111 -31 163 -13 52 -24 111 -24 131 0 43 -16 90 -33 101 -29 18 -223 9 -250 -12 -33 -26 -39 -25 -76 6 -40 33 -83 27 -132 -17 -101 -92 -107 -93 -185 -18 -33 33 -52 42 -110 53 -109 22 -126 23 -175 16z m151 -225 c88 -80 109 -424 33 -537 -72 -107 -197 -103 -277 10 -26 37 -29 49 -34 154 -10 242 15 342 98 386 36 19 155 10 180 -13z m85 -1229 c131 -59 151 -142 56 -222 -40 -33 -158 -45 -331 -33 -90 7 -96 8 -123 39 -52 58 -23 178 58 243 26 21 278 1 340 -27z"/> <path d="M3951 3134 c-127 -25 -194 -98 -252 -274 l-34 -105 0 -365 0 -365 33 -95 c75 -213 183 -289 411 -290 242 0 369 112 406 358 24 163 16 172 -135 172 -122 0 -130 -8 -130 -127 0 -74 -4 -92 -25 -129 -52 -89 -179 -85 -248 8 -26 35 -39 420 -15 451 13 17 32 19 265 18 339 -2 322 -14 303 201 -27 318 -53 400 -152 488 -76 66 -251 88 -427 54z m241 -214 c48 -37 58 -76 58 -223 0 -163 8 -155 -144 -158 -162 -3 -161 -4 -151 176 8 151 21 190 67 210 50 22 140 19 170 -5z"/> <path d="M5022 3134 c-119 -21 -194 -101 -246 -262 l-31 -97 0 -380 0 -380 29 -90 c64 -199 187 -286 403 -286 282 0 398 127 404 440 4 154 4 154 -123 149 -119 -4 -120 -5 -123 -158 -3 -114 -6 -125 -31 -161 -64 -93 -224 -72 -256 34 -22 71 -18 880 4 930 35 78 160 93 230 28 45 -41 55 -80 57 -208 1 -80 19 -93 126 -93 116 0 120 6 113 173 -13 315 -188 429 -556 361z"/> <path d="M9472 3135 c-84 -15 -103 -26 -175 -100 -35 -35 -58 -68 -66 -97 -7 -24 -19 -52 -26 -64 -23 -36 -37 -138 -24 -168 15 -32 24 -35 135 -38 121 -3 132 7 149 144 12 96 68 136 173 125 78 -8 110 -76 113 -241 2 -109 -16 -132 -129 -165 -38 -12 -77 -30 -86 -40 -10 -11 -30 -22 -44 -26 -81 -19 -217 -143 -273 -247 l-44 -83 0 -130 c0 -146 9 -169 100 -273 115 -130 302 -124 416 14 29 35 56 64 61 64 12 0 28 -36 28 -64 0 -63 37 -86 142 -86 102 0 124 13 121 70 -1 25 -6 290 -10 590 l-8 545 -33 60 c-17 33 -32 65 -32 72 0 15 -86 100 -120 118 -62 32 -244 42 -368 20z m274 -757 c16 -26 4 -371 -14 -401 -22 -37 -124 -107 -157 -107 -99 0 -160 181 -101 305 49 103 244 248 272 203z"/> <path d="M10813 3136 c-71 -18 -137 -66 -189 -140 -33 -47 -54 -30 -54 43 0 86 -8 91 -135 91 -151 0 -136 83 -133 -744 3 -814 -13 -726 139 -726 142 0 129 -54 129 556 l0 511 36 46 c62 79 110 101 215 95 127 -8 129 -5 129 131 0 142 -23 165 -137 137z"/> <path d="M12468 3135 c-117 -24 -207 -107 -238 -221 -10 -38 -26 -94 -35 -124 -27 -94 -18 -753 12 -835 12 -33 27 -79 33 -102 13 -51 104 -147 164 -174 198 -87 496 -26 554 114 8 18 24 48 38 68 17 25 27 59 34 117 23 184 19 192 -124 192 -127 0 -132 -4 -138 -122 -8 -148 -41 -193 -143 -193 -132 0 -156 46 -162 309 -6 254 -37 229 274 227 348 -3 324 -24 301 279 l-17 205 -40 81 c-52 104 -108 157 -182 174 -84 18 -254 21 -331 5z m225 -206 c48 -22 66 -74 72 -210 9 -179 13 -174 -150 -174 l-130 0 -13 29 c-19 39 -1 275 23 313 31 46 138 69 198 42z"/> <path d="M15170 3132 c-44 -12 -86 -33 -130 -65 -80 -59 -100 -56 -100 15 0 42 -17 48 -132 48 -166 0 -148 89 -148 -739 0 -631 2 -700 16 -712 26 -22 208 -26 239 -5 l25 16 0 559 c0 357 4 569 10 588 24 69 195 123 252 79 36 -27 38 -58 38 -642 0 -683 -17 -614 148 -614 165 0 147 -78 147 642 l0 613 -30 74 c-61 151 -153 191 -335 143z"/> <path d="M20577 3135 c-70 -12 -82 -18 -135 -63 -86 -75 -89 -80 -127 -198 -58 -181 -51 -196 87 -205 143 -9 168 9 168 120 0 92 57 151 147 151 98 0 131 -48 140 -205 9 -142 -10 -169 -138 -208 -24 -8 -62 -26 -83 -40 -21 -15 -44 -27 -50 -27 -42 0 -246 -179 -246 -216 0 -7 -14 -38 -32 -70 -48 -91 -48 -251 2 -339 123 -220 330 -262 481 -96 65 70 83 73 93 15 13 -68 52 -94 140 -94 114 0 150 27 131 98 -4 15 -10 270 -14 567 -6 481 -9 544 -24 575 -83 168 -131 215 -244 235 -95 17 -193 17 -296 0z m267 -751 c31 -12 23 -368 -10 -411 -32 -42 -121 -103 -151 -103 -33 0 -101 65 -113 108 -39 143 16 257 180 368 69 47 70 47 94 38z"/> <path d="M22434 3136 c-122 -20 -203 -95 -255 -238 l-34 -93 0 -410 0 -410 35 -89 c69 -176 168 -242 377 -253 283 -15 431 137 433 444 0 72 -18 83 -130 83 -119 0 -124 -4 -130 -122 -9 -151 -66 -211 -183 -194 -102 15 -115 53 -119 334 -2 151 1 185 13 193 17 11 -5 10 286 12 183 2 245 5 255 15 15 15 14 231 -2 388 -19 189 -113 314 -256 339 -94 17 -193 17 -290 1z m229 -216 c52 -41 67 -94 67 -232 0 -91 -4 -129 -13 -136 -20 -17 -254 -17 -274 -1 -19 16 -14 270 7 328 22 60 156 86 213 41z"/> <path d="M19983 3130 c-18 -4 -68 -39 -114 -79 -99 -86 -99 -86 -99 -12 0 83 -13 91 -146 91 -75 0 -105 -4 -113 -14 -13 -15 -18 -1397 -5 -1429 9 -24 40 -30 138 -26 138 6 126 -48 126 552 l0 510 24 42 c48 81 137 118 251 105 102 -12 105 -8 105 132 0 138 -30 161 -167 128z"/> <path d="M3146 3114 c-14 -14 -16 -93 -16 -719 l0 -704 22 -15 c17 -12 48 -16 120 -16 154 0 138 -86 138 739 l0 700 -22 15 c-32 23 -220 23 -242 0z"/> <path d="M14105 3106 c-27 -40 -18 -1412 9 -1432 44 -31 236 -14 250 23 3 7 6 325 6 706 l1 692 -22 18 c-37 30 -223 25 -244 -7z"/></g><g transform="translate(0.000000,996.000000) scale(0.100000,-0.100000)" fill="#E6D14A"><path d="M14238 8795 l-37 -25 -9 0 -9 0 -39 -28 -39 -28 -87 -48 -88 -47 -6 -10 -6 -10 -51 -25 -52 -25 -30 -17 -30 -17 -30 -21 -30 -21 -25 -8 -25 -7 -25 -23 -25 -23 -35 -16 -35 -17 -40 -23 -40 -23 -39 -26 -39 -27 -10 0 -10 0 -32 -24 -31 -24 -35 -15 -34 -14 -36 -40 -36 -40 -7 -49 -7 -49 -23 -45 -23 -45 -8 -35 -7 -35 -25 -85 -25 -85 -20 -50 -20 -50 -15 -55 -15 -55 -10 -43 -11 -44 -24 -15 -23 -16 -63 18 -62 17 -31 19 -31 19 -14 0 -14 0 -55 26 -55 25 -50 10 -50 9 -27 20 -27 20 -55 14 -54 14 -29 16 -30 15 -49 12 -49 12 -45 23 -45 23 -48 11 -47 10 -38 20 -37 20 -43 0 -43 0 -72 -66 -72 -67 -50 -46 -50 -47 -110 -100 -110 -99 -47 -39 -48 -38 0 -32 0 -31 8 -11 7 -11 22 -12 22 -11 33 0 33 0 160 -21 160 -21 183 -7 183 -6 34 -40 34 -40 12 -34 12 -34 32 -61 33 -61 15 -30 16 -30 65 -133 66 -133 0 -13 0 -13 30 -38 30 -38 0 -9 0 -9 36 -77 37 -77 18 -24 19 -24 0 -26 -1 -26 -14 -25 -14 -25 -1 -25 0 -26 28 -31 29 -31 52 -11 52 -11 27 -14 28 -14 64 -12 65 -11 35 -23 35 -24 65 -12 65 -12 27 -14 27 -14 61 -14 61 -15 25 -16 25 -16 76 -15 76 -14 12 -10 13 -11 122 -39 121 -40 17 0 17 0 61 -29 61 -29 44 -7 44 -7 61 -24 61 -24 9 0 10 0 53 -16 52 -15 20 -20 19 -19 0 -297 0 -298 13 -25 12 -24 35 -12 35 -12 125 -21 125 -20 58 -6 58 -5 92 -24 92 -24 122 -7 123 -8 25 17 25 16 0 21 0 20 -17 27 -16 27 -36 55 -35 55 -21 35 -21 35 -69 105 -68 105 -52 80 -52 80 -59 93 -59 93 -22 32 -23 32 -17 29 -18 28 -42 62 -42 61 -25 46 -24 45 -16 13 -16 13 0 12 0 11 -23 35 -24 35 -11 79 -10 79 -21 26 -21 26 -11 25 -11 25 -40 80 -40 80 -21 40 -20 40 -13 25 -13 25 -61 120 -61 120 -20 35 -19 35 0 28 0 28 15 29 16 30 9 0 10 0 25 48 26 47 30 40 30 40 34 50 34 50 51 69 50 70 19 20 19 21 16 30 17 30 27 36 27 36 95 132 95 132 44 62 44 62 52 70 51 70 59 88 59 88 -10 17 -11 17 -25 14 -25 14 -86 -27 -87 -28 -5 -8 -5 -8 -52 -12 -53 -12 -29 -20 -29 -21 -56 -18 -56 -18 -60 -23 -60 -23 -37 -23 -37 -23 -22 11 -21 12 7 46 6 47 24 52 23 52 12 56 12 57 13 32 13 31 12 65 11 65 25 53 25 53 6 84 6 84 -13 16 -12 15 -27 0 -26 0 -37 -25z m-80 -231 l9 -17 -18 -81 -17 -81 -15 -35 -15 -35 -7 -43 -7 -44 -23 -56 -23 -57 -7 -60 -7 -60 -23 -45 -23 -45 -7 -44 -7 -44 -24 -68 -24 -69 0 -26 0 -26 -29 -66 -29 -67 -6 -50 -7 -50 -26 -85 -26 -85 -12 -14 -13 -13 -11 6 -11 7 -75 152 -76 152 -14 25 -14 25 -19 40 -18 40 -43 85 -43 85 -18 35 -18 35 -46 92 -46 91 9 24 9 24 15 12 15 13 48 25 49 26 40 21 40 20 20 17 20 17 34 12 35 11 17 15 16 16 58 34 57 35 9 0 8 0 33 29 33 28 45 22 45 22 30 16 30 16 33 29 33 28 24 0 24 0 9 -16z m480 -555 l3 -15 -53 -66 -53 -65 -18 -29 -17 -29 -48 -62 -47 -62 -63 -88 -63 -88 -47 -63 -47 -64 -22 -31 -23 -32 -52 -77 -53 -78 -63 -90 -64 -90 -14 0 -13 0 -10 19 -10 18 8 30 9 29 17 34 18 34 24 91 23 90 21 80 20 80 16 24 15 23 14 78 13 77 26 68 25 68 11 13 11 13 37 7 36 7 47 23 47 24 13 0 13 0 60 29 60 29 38 7 37 7 33 24 32 23 25 -2 25 -2 3 -16z m-1364 -140 l28 -41 14 -40 14 -39 18 -27 19 -27 8 -25 8 -25 23 -31 24 -31 0 -9 0 -10 65 -129 65 -128 0 -12 0 -13 14 -11 14 -12 56 -112 55 -112 15 -25 14 -25 20 -40 19 -40 47 -95 47 -95 14 -25 13 -25 86 -170 86 -170 44 -83 43 -83 17 -37 16 -37 21 -33 21 -33 4 -202 4 -202 -11 -27 -11 -28 -11 0 -11 0 -41 14 -40 14 -105 32 -105 32 -50 23 -50 23 -49 7 -49 7 -51 22 -52 23 -39 7 -39 8 -36 18 -35 18 -65 12 -65 12 -40 23 -40 23 -53 11 -52 11 -33 13 -32 14 -55 13 -55 12 -31 19 -31 19 -72 15 -71 15 -40 20 -39 20 -11 20 -11 20 16 60 15 60 19 32 19 33 11 53 11 52 14 34 14 34 12 56 11 56 24 43 23 42 7 50 7 50 22 60 23 60 7 40 7 40 23 50 24 50 7 50 7 50 20 40 21 40 18 65 18 65 24 87 24 87 17 26 17 26 14 73 14 73 21 52 20 52 0 22 0 23 12 12 12 12 12 0 11 0 27 -41z m-1451 -327 l16 -17 31 -65 30 -65 15 -25 14 -25 27 -59 28 -58 -19 -14 -19 -14 -23 0 -24 0 -97 10 -97 10 -100 16 -100 16 -12 10 -13 10 0 13 0 12 83 66 82 66 70 65 70 66 11 0 11 0 16 -18z m249 -17 l36 -25 47 -10 47 -10 38 -20 39 -20 14 0 14 0 48 -25 47 -26 52 -10 51 -11 34 -19 34 -20 51 -14 51 -15 75 -26 75 -26 14 -13 14 -14 -13 -78 -12 -78 -23 -46 -23 -45 -8 -40 -7 -39 -23 -63 -24 -62 0 -23 0 -22 -26 -55 -26 -55 -18 -80 -18 -80 -16 -36 -15 -36 -15 -12 -15 -13 -10 6 -9 6 -17 49 -16 49 -14 12 -14 12 -10 31 -11 32 -40 75 -40 75 -21 45 -20 45 -9 15 -9 15 -101 205 -101 205 -14 25 -13 25 -62 119 -61 119 5 14 5 13 23 0 23 0 37 -25z m2350 -1937 l35 -53 58 -90 58 -90 38 -60 38 -60 19 -25 18 -25 43 -70 43 -70 21 -31 22 -32 38 -58 37 -59 25 -34 25 -34 0 -13 0 -13 -19 -10 -19 -11 -58 21 -59 20 -145 14 -145 14 -55 12 -55 11 -17 16 -18 15 0 377 0 377 7 6 6 7 12 0 12 0 35 -52z"/></g></g></svg>